<?xml version="1.0" encoding="UTF-8"?>
<svg xmlns="http://www.w3.org/2000/svg" xmlns:xlink="http://www.w3.org/1999/xlink" width="20px" height="23px" viewBox="0 0 20 23" version="1.1">
<g id="surface1">
<path style=" stroke:none;fill-rule:nonzero;fill:rgb(100%,0%,47.843137%);fill-opacity:1;" d="M 7.84375 5.246094 C 7.59375 5.210938 7.582031 5.199219 7.699219 5.1875 C 7.925781 5.152344 8.449219 5.199219 8.816406 5.28125 C 9.671875 5.480469 10.445312 6.003906 11.265625 6.914062 L 11.480469 7.164062 L 11.789062 7.117188 C 13.109375 6.902344 14.460938 7.066406 15.589844 7.589844 C 15.898438 7.730469 16.386719 8.015625 16.445312 8.085938 C 16.46875 8.109375 16.507812 8.261719 16.53125 8.417969 C 16.613281 8.972656 16.578125 9.386719 16.398438 9.707031 C 16.304688 9.882812 16.304688 9.933594 16.363281 10.085938 C 16.410156 10.203125 16.554688 10.285156 16.683594 10.285156 C 16.96875 10.285156 17.265625 9.835938 17.410156 9.210938 L 17.46875 8.960938 L 17.574219 9.078125 C 18.183594 9.753906 18.65625 10.6875 18.726562 11.351562 L 18.753906 11.53125 L 18.644531 11.375 C 18.46875 11.105469 18.300781 10.925781 18.074219 10.773438 C 17.671875 10.5 17.242188 10.417969 16.113281 10.359375 C 15.09375 10.296875 14.511719 10.214844 13.9375 10.027344 C 12.964844 9.707031 12.464844 9.292969 11.3125 7.765625 C 10.800781 7.089844 10.480469 6.726562 10.160156 6.417969 C 9.460938 5.742188 8.757812 5.386719 7.84375 5.246094 Z M 7.84375 5.246094 "/>
<path style=" stroke:none;fill-rule:nonzero;fill:rgb(100%,0%,47.843137%);fill-opacity:1;" d="M 16.695312 6.75 C 16.71875 6.296875 16.78125 6.003906 16.910156 5.730469 C 16.957031 5.625 17.003906 5.53125 17.015625 5.53125 C 17.027344 5.53125 17.003906 5.613281 16.96875 5.707031 C 16.875 5.96875 16.863281 6.335938 16.921875 6.75 C 17.003906 7.28125 17.039062 7.351562 17.613281 7.933594 C 17.871094 8.203125 18.183594 8.546875 18.300781 8.6875 L 18.503906 8.949219 L 18.300781 8.761719 C 18.050781 8.523438 17.480469 8.074219 17.351562 8.015625 C 17.265625 7.96875 17.253906 7.96875 17.195312 8.027344 C 17.148438 8.074219 17.136719 8.144531 17.136719 8.488281 C 17.125 9.019531 17.054688 9.351562 16.875 9.695312 C 16.78125 9.871094 16.769531 9.835938 16.851562 9.636719 C 16.910156 9.480469 16.921875 9.410156 16.921875 8.902344 C 16.921875 7.871094 16.804688 7.625 16.078125 7.210938 C 15.898438 7.101562 15.589844 6.949219 15.414062 6.867188 C 15.222656 6.785156 15.082031 6.714844 15.09375 6.714844 C 15.117188 6.6875 15.816406 6.890625 16.089844 7.007812 C 16.507812 7.175781 16.578125 7.1875 16.625 7.175781 C 16.660156 7.140625 16.683594 7.042969 16.695312 6.75 Z M 16.695312 6.75 "/>
<path style=" stroke:none;fill-rule:nonzero;fill:rgb(100%,0%,47.843137%);fill-opacity:1;" d="M 8.332031 8.511719 C 7.832031 7.824219 7.511719 6.761719 7.582031 5.96875 L 7.605469 5.71875 L 7.722656 5.742188 C 7.9375 5.777344 8.304688 5.921875 8.484375 6.027344 C 8.960938 6.3125 9.175781 6.699219 9.375 7.671875 C 9.433594 7.957031 9.519531 8.285156 9.554688 8.394531 C 9.613281 8.570312 9.839844 8.984375 10.03125 9.246094 C 10.160156 9.433594 10.078125 9.53125 9.78125 9.507812 C 9.328125 9.457031 8.722656 9.042969 8.332031 8.511719 Z M 8.332031 8.511719 "/>
<path style=" stroke:none;fill-rule:nonzero;fill:rgb(100%,0%,47.843137%);fill-opacity:1;" d="M 16.089844 13.660156 C 13.738281 12.714844 12.90625 11.894531 12.90625 10.511719 C 12.90625 10.3125 12.917969 10.144531 12.917969 10.144531 C 12.929688 10.144531 13.011719 10.214844 13.121094 10.296875 C 13.59375 10.675781 14.128906 10.84375 15.613281 11.054688 C 16.484375 11.1875 16.980469 11.28125 17.433594 11.433594 C 18.871094 11.910156 19.761719 12.878906 19.976562 14.191406 C 20.035156 14.570312 20 15.292969 19.90625 15.671875 C 19.820312 15.96875 19.585938 16.511719 19.523438 16.523438 C 19.511719 16.523438 19.488281 16.464844 19.488281 16.371094 C 19.464844 15.871094 19.214844 15.398438 18.800781 15.03125 C 18.300781 14.605469 17.660156 14.285156 16.089844 13.660156 Z M 16.089844 13.660156 "/>
<path style=" stroke:none;fill-rule:nonzero;fill:rgb(100%,0%,47.843137%);fill-opacity:1;" d="M 14.425781 14.050781 C 14.402344 13.871094 14.34375 13.648438 14.308594 13.554688 L 14.25 13.375 L 14.355469 13.507812 C 14.511719 13.683594 14.628906 13.898438 14.734375 14.191406 C 14.820312 14.417969 14.820312 14.488281 14.820312 14.855469 C 14.820312 15.210938 14.808594 15.292969 14.734375 15.496094 C 14.617188 15.8125 14.472656 16.039062 14.238281 16.285156 C 13.808594 16.726562 13.25 16.960938 12.453125 17.066406 C 12.3125 17.078125 11.90625 17.117188 11.550781 17.140625 C 10.660156 17.1875 10.066406 17.28125 9.53125 17.46875 C 9.460938 17.496094 9.386719 17.519531 9.375 17.507812 C 9.351562 17.480469 9.722656 17.269531 10.019531 17.128906 C 10.433594 16.925781 10.863281 16.820312 11.800781 16.652344 C 12.265625 16.582031 12.738281 16.488281 12.859375 16.441406 C 14.035156 16.074219 14.617188 15.164062 14.425781 14.050781 Z M 14.425781 14.050781 "/>
<path style=" stroke:none;fill-rule:nonzero;fill:rgb(100%,0%,47.843137%);fill-opacity:1;" d="M 15.507812 15.957031 C 15.199219 15.28125 15.128906 14.640625 15.292969 14.039062 C 15.316406 13.980469 15.339844 13.921875 15.367188 13.921875 C 15.390625 13.921875 15.460938 13.957031 15.53125 14.003906 C 15.675781 14.097656 15.972656 14.261719 16.730469 14.675781 C 17.695312 15.199219 18.242188 15.601562 18.621094 16.0625 C 18.953125 16.464844 19.15625 16.925781 19.25 17.496094 C 19.3125 17.8125 19.273438 18.582031 19.191406 18.902344 C 18.929688 19.910156 18.335938 20.714844 17.46875 21.175781 C 17.339844 21.246094 17.230469 21.292969 17.21875 21.292969 C 17.207031 21.292969 17.253906 21.175781 17.328125 21.03125 C 17.613281 20.429688 17.648438 19.847656 17.433594 19.199219 C 17.300781 18.796875 17.027344 18.3125 16.484375 17.496094 C 15.828125 16.546875 15.675781 16.300781 15.507812 15.957031 Z M 15.507812 15.957031 "/>
<path style=" stroke:none;fill-rule:nonzero;fill:rgb(100%,0%,47.843137%);fill-opacity:1;" d="M 6.65625 19.578125 C 7.535156 18.84375 8.617188 18.324219 9.613281 18.15625 C 10.042969 18.085938 10.753906 18.109375 11.148438 18.214844 C 11.777344 18.382812 12.347656 18.738281 12.644531 19.175781 C 12.929688 19.601562 13.058594 19.96875 13.191406 20.785156 C 13.238281 21.105469 13.296875 21.433594 13.308594 21.507812 C 13.40625 21.933594 13.59375 22.261719 13.832031 22.441406 C 14.199219 22.714844 14.84375 22.726562 15.472656 22.488281 C 15.578125 22.453125 15.675781 22.417969 15.675781 22.429688 C 15.699219 22.453125 15.378906 22.664062 15.164062 22.773438 C 14.867188 22.925781 14.628906 22.972656 14.308594 22.972656 C 13.738281 22.972656 13.25 22.675781 12.859375 22.085938 C 12.773438 21.96875 12.609375 21.625 12.464844 21.304688 C 12.050781 20.347656 11.835938 20.0625 11.347656 19.742188 C 10.921875 19.46875 10.375 19.410156 9.957031 19.613281 C 9.410156 19.871094 9.269531 20.570312 9.648438 20.996094 C 9.804688 21.175781 10.089844 21.316406 10.328125 21.351562 C 10.765625 21.410156 11.148438 21.066406 11.148438 20.628906 C 11.148438 20.347656 11.039062 20.179688 10.753906 20.050781 C 10.375 19.886719 9.957031 20.074219 9.96875 20.441406 C 9.96875 20.59375 10.042969 20.691406 10.195312 20.761719 C 10.292969 20.808594 10.292969 20.808594 10.21875 20.796875 C 9.875 20.726562 9.792969 20.300781 10.066406 20.027344 C 10.398438 19.695312 11.097656 19.835938 11.335938 20.300781 C 11.433594 20.488281 11.445312 20.867188 11.359375 21.105469 C 11.160156 21.625 10.589844 21.898438 10.007812 21.742188 C 9.613281 21.636719 9.449219 21.53125 8.972656 21.042969 C 8.140625 20.191406 7.820312 20.027344 6.632812 19.847656 L 6.40625 19.8125 Z M 6.65625 19.578125 "/>
<path style=" stroke:none;fill-rule:evenodd;fill:rgb(100%,0%,47.843137%);fill-opacity:1;" d="M 0.402344 0.535156 C 3.171875 3.882812 7.4375 9.089844 7.652344 9.375 C 7.832031 9.613281 7.761719 9.835938 7.460938 10.003906 C 7.296875 10.097656 6.953125 10.191406 6.785156 10.191406 C 6.59375 10.191406 6.371094 10.097656 6.214844 9.945312 C 6.109375 9.835938 5.644531 9.164062 4.597656 7.542969 C 3.800781 6.296875 3.125 5.269531 3.113281 5.257812 C 3.066406 5.234375 3.066406 5.234375 4.515625 7.8125 C 5.429688 9.433594 5.726562 10.015625 5.726562 10.085938 C 5.726562 10.238281 5.679688 10.324219 5.488281 10.535156 C 5.167969 10.890625 5.027344 11.292969 4.917969 12.132812 C 4.800781 13.066406 4.480469 13.730469 3.566406 14.855469 C 3.03125 15.519531 2.945312 15.636719 2.816406 15.910156 C 2.648438 16.238281 2.601562 16.429688 2.578125 16.855469 C 2.554688 17.304688 2.601562 17.589844 2.734375 18.015625 C 2.851562 18.394531 2.984375 18.640625 3.304688 19.128906 C 3.578125 19.554688 3.742188 19.871094 3.742188 19.992188 C 3.742188 20.085938 3.765625 20.085938 4.195312 19.992188 C 5.21875 19.753906 6.0625 19.351562 6.523438 18.855469 C 6.808594 18.546875 6.878906 18.382812 6.878906 17.957031 C 6.878906 17.683594 6.867188 17.625 6.796875 17.457031 C 6.679688 17.199219 6.453125 16.984375 5.964844 16.652344 C 5.324219 16.214844 5.050781 15.859375 4.980469 15.386719 C 4.917969 14.984375 4.992188 14.714844 5.347656 13.96875 C 5.714844 13.199219 5.8125 12.878906 5.871094 12.097656 C 5.90625 11.601562 5.964844 11.398438 6.109375 11.246094 C 6.261719 11.078125 6.394531 11.019531 6.761719 10.972656 C 7.367188 10.890625 7.761719 10.738281 8.070312 10.441406 C 8.34375 10.191406 8.460938 9.945312 8.472656 9.578125 L 8.484375 9.304688 L 8.332031 9.140625 C 7.773438 8.5 0.0351562 0.0273438 0 0.0273438 C -0.0117188 0.0273438 0.179688 0.25 0.402344 0.535156 Z M 4.050781 17.363281 C 4.183594 17.140625 4.113281 16.855469 3.898438 16.714844 C 3.695312 16.582031 3.386719 16.640625 3.386719 16.820312 C 3.386719 16.867188 3.410156 16.914062 3.480469 16.9375 C 3.589844 16.996094 3.601562 17.054688 3.515625 17.1875 C 3.433594 17.316406 3.433594 17.433594 3.542969 17.519531 C 3.707031 17.648438 3.933594 17.578125 4.050781 17.363281 Z M 4.050781 17.363281 "/>
<path style=" stroke:none;fill-rule:evenodd;fill:rgb(100%,0%,47.843137%);fill-opacity:1;" d="M 8.863281 11.140625 C 8.578125 11.222656 8.304688 11.53125 8.222656 11.835938 C 8.175781 12.027344 8.199219 12.371094 8.28125 12.476562 C 8.414062 12.640625 8.53125 12.6875 8.863281 12.6875 C 9.519531 12.6875 10.078125 12.40625 10.136719 12.0625 C 10.195312 11.777344 9.945312 11.386719 9.601562 11.210938 C 9.421875 11.117188 9.054688 11.078125 8.863281 11.140625 Z M 9.625 11.730469 C 9.722656 11.589844 9.683594 11.433594 9.507812 11.328125 C 9.1875 11.128906 8.699219 11.292969 8.699219 11.601562 C 8.699219 11.753906 8.949219 11.921875 9.1875 11.921875 C 9.339844 11.921875 9.554688 11.824219 9.625 11.730469 Z M 9.625 11.730469 "/>
</g>
</svg>
